<svg width="71" height="69" viewBox="0 0 71 69" fill="none" xmlns="http://www.w3.org/2000/svg">
<path d="M44.875 68.3125H37.8438C36.6009 68.3113 35.4094 67.817 34.5306 66.9382C33.6517 66.0594 33.1575 64.8678 33.1562 63.625V51.9062H37.8438V63.625H44.875V51.9062H49.5625V42.5312C49.5619 41.9098 49.3148 41.3141 48.8753 40.8747C48.4359 40.4353 47.8402 40.1881 47.2188 40.1875H26.7812L22.0938 26.125H7.375C6.75359 26.1256 6.15781 26.3728 5.7184 26.8122C5.279 27.2516 5.03187 27.8473 5.03125 28.4688V42.5312H9.71875V63.625H19.0938V47.2188H23.7812V63.625C23.78 64.8678 23.2857 66.0594 22.4069 66.9382C21.5281 67.817 20.3366 68.3113 19.0938 68.3125H9.71875C8.47593 68.3113 7.28437 67.817 6.40556 66.9382C5.52675 66.0594 5.03249 64.8678 5.03125 63.625V47.2188C3.78843 47.2175 2.59687 46.7233 1.71806 45.8444C0.83925 44.9656 0.344991 43.7741 0.34375 42.5312V28.4688C0.345611 26.6045 1.087 24.8172 2.40521 23.499C3.72342 22.1808 5.51077 21.4394 7.375 21.4375H22.0938C23.0774 21.4369 24.0363 21.7461 24.8344 22.3212C25.6325 22.8962 26.2292 23.7081 26.5398 24.6414L30.1562 35.5H47.2188C49.083 35.5019 50.8703 36.2432 52.1885 37.5615C53.5068 38.8797 54.2481 40.667 54.25 42.5312V51.9062C54.2488 53.1491 53.7545 54.3406 52.8757 55.2194C51.9969 56.0983 50.8053 56.5925 49.5625 56.5938V63.625C49.5613 64.8678 49.067 66.0594 48.1882 66.9382C47.3094 67.817 46.1178 68.3113 44.875 68.3125Z" fill="black"/>
<path d="M63.625 68.3125H58.9375V42.5312H65.9688V28.4688C65.9681 27.8473 65.721 27.2516 65.2816 26.8122C64.8422 26.3728 64.2464 26.1256 63.625 26.125H54.25V21.4375H63.625C65.4892 21.4394 67.2766 22.1808 68.5948 23.499C69.913 24.8172 70.6544 26.6045 70.6562 28.4688V42.5312C70.655 43.7741 70.1608 44.9656 69.2819 45.8444C68.4031 46.7233 67.2116 47.2175 65.9688 47.2188H63.625V68.3125Z" fill="black"/>
<path d="M14.4063 19.0938C12.5521 19.0938 10.7395 18.5439 9.19778 17.5138C7.65607 16.4836 6.45445 15.0195 5.74488 13.3064C5.03531 11.5934 4.84966 9.70835 5.21139 7.88978C5.57313 6.07121 6.46601 4.40075 7.77713 3.08963C9.08824 1.77851 10.7587 0.885629 12.5773 0.523892C14.3959 0.162156 16.2809 0.347812 17.9939 1.05738C19.707 1.76696 21.1711 2.96857 22.2013 4.51028C23.2314 6.05199 23.7813 7.86455 23.7813 9.71875C23.7782 12.2042 22.7894 14.587 21.032 16.3445C19.2745 18.1019 16.8917 19.0907 14.4063 19.0938ZM14.4063 5.03125C13.4792 5.03125 12.5729 5.30617 11.802 5.82124C11.0312 6.33631 10.4304 7.0684 10.0756 7.92493C9.72078 8.78145 9.62795 9.72395 9.80882 10.6332C9.98969 11.5425 10.4361 12.3778 11.0917 13.0333C11.7472 13.6889 12.5825 14.1353 13.4918 14.3162C14.4011 14.4971 15.3436 14.4042 16.2001 14.0494C17.0566 13.6947 17.7887 13.0938 18.3038 12.323C18.8188 11.5521 19.0938 10.6459 19.0938 9.71875C19.0925 8.47593 18.5983 7.28437 17.7194 6.40556C16.8406 5.52675 15.6491 5.0325 14.4063 5.03125Z" fill="black"/>
<path d="M56.5938 19.0938C54.7396 19.0938 52.927 18.5439 51.3853 17.5138C49.8436 16.4836 48.642 15.0195 47.9324 13.3064C47.2228 11.5934 47.0372 9.70835 47.3989 7.88978C47.7606 6.07121 48.6535 4.40075 49.9646 3.08963C51.2757 1.77851 52.9462 0.885629 54.7648 0.523892C56.5834 0.162156 58.4684 0.347812 60.1814 1.05738C61.8945 1.76696 63.3586 2.96857 64.3888 4.51028C65.4189 6.05199 65.9688 7.86455 65.9688 9.71875C65.9657 12.2042 64.9769 14.587 63.2195 16.3445C61.462 18.1019 59.0792 19.0907 56.5938 19.0938ZM56.5938 5.03125C55.6667 5.03125 54.7604 5.30617 53.9895 5.82124C53.2187 6.33631 52.6179 7.0684 52.2631 7.92493C51.9083 8.78145 51.8155 9.72395 51.9963 10.6332C52.1772 11.5425 52.6236 12.3778 53.2792 13.0333C53.9347 13.6889 54.77 14.1353 55.6793 14.3162C56.5886 14.4971 57.5311 14.4042 58.3876 14.0494C59.2441 13.6947 59.9762 13.0938 60.4913 12.323C61.0063 11.5521 61.2813 10.6459 61.2813 9.71875C61.28 8.47593 60.7858 7.28437 59.9069 6.40556C59.0281 5.52675 57.8366 5.0325 56.5938 5.03125Z" fill="black"/>
<path d="M41.3594 33.1562C39.737 33.1562 38.151 32.6751 36.802 31.7738C35.453 30.8724 34.4016 29.5913 33.7807 28.0923C33.1598 26.5934 32.9974 24.944 33.3139 23.3528C33.6304 21.7615 34.4117 20.2999 35.5589 19.1526C36.7061 18.0054 38.1678 17.2241 39.759 16.9076C41.3503 16.5911 42.9996 16.7536 44.4986 17.3744C45.9975 17.9953 47.2787 19.0467 48.18 20.3957C49.0814 21.7447 49.5625 23.3307 49.5625 24.9531C49.56 27.128 48.695 29.213 47.1571 30.7509C45.6193 32.2887 43.5342 33.1538 41.3594 33.1562ZM41.3594 21.4375C40.6641 21.4375 39.9843 21.6437 39.4062 22.03C38.8281 22.4163 38.3775 22.9654 38.1114 23.6078C37.8453 24.2502 37.7757 24.957 37.9113 25.639C38.047 26.321 38.3818 26.9474 38.8735 27.4391C39.3651 27.9307 39.9916 28.2656 40.6735 28.4012C41.3555 28.5369 42.0623 28.4672 42.7047 28.2011C43.3471 27.9351 43.8962 27.4844 44.2825 26.9063C44.6688 26.3282 44.875 25.6485 44.875 24.9531C44.8738 24.0211 44.503 23.1276 43.8439 22.4686C43.1849 21.8095 42.2914 21.4387 41.3594 21.4375Z" fill="black"/>
</svg>
