<?xml version="1.0" encoding="utf-8"?>
<!-- Generator: Adobe Illustrator 24.2.1, SVG Export Plug-In . SVG Version: 6.00 Build 0)  -->
<svg version="1.1" id="Warstwa_1" xmlns="http://www.w3.org/2000/svg" xmlns:xlink="http://www.w3.org/1999/xlink" x="0px" y="0px"
	 viewBox="0 0 467.11 182.18" style="enable-background:new 0 0 467.11 182.18;" xml:space="preserve">
<style type="text/css">
	.st0{fill-rule:evenodd;clip-rule:evenodd;fill:#FFFFF;}
</style>
<path class="st0" d="M66.9,0l66.42,95.33l-0.06-60.66C133.24,17.6,130.77,4.58,110.56,5V0h51.9v5
	c-18.83,2.73-20.61,10.84-20.61,29.67v151.69h-3.96L31.64,34.67V150.5c0,17.37,6,26.73,24.09,26.73v4.95H0v-4.95
	c18.32-0.19,23.18-9.5,23.18-26.73V21.92l-3.36-4.86c-3.32-4.81-6.25-7.98-8.82-9.54C8.46,6.01,4.79,5.18,0,5V0H66.9L66.9,0z
	 M247.82,10.5l0.07,51.8c2.67-4.15,6.11-8.38,10.16-11.54c15.1-11.77,37.54-2.67,37.04,21.12c-0.37,17.64-13.5,33.62-26.84,44.13
	c-5.79,4.56-12.19,8.61-20.34,14.18l-0.01,27.85c0.57,17.48,5.9,19.19,21.27,19.19v4.95h-95.81v-4.95
	c20.04,0,22.11-7.15,22.11-26.23V31.18c0-13.8,0.5-26.18-16.89-26.18h-5.22V0h146.2v52.27h-4.75
	c-3.09-35.52-21.27-41.77-53.28-41.77H247.82L247.82,10.5z M457.85,0l-78.71,171.95h16.25c39.35,0,60.13-15,67.21-55.62h4.51
	l-6.37,65.85h-143.9L395.67,9.95l-9.01,0.04c-29.4,0.12-45.71,7.79-52.93,43.34h-4.27L333.73,0H457.85L457.85,0z M246.09,62.64
	c-2.63-4.06-5.8-8.21-9.78-11.3c-14.87-11.53-36.97-2.62-36.48,20.68c0.36,17.28,13.3,32.93,26.44,43.22
	c5.7,4.46,12,8.43,20.03,13.89L246.09,62.64L246.09,62.64z"/>
</svg>
