<svg width="67" height="64" viewBox="0 0 67 64" fill="none" xmlns="http://www.w3.org/2000/svg">
<path d="M63.4203 2.975C61.6577 1.18388 59.2784 0.13238 56.7673 0.0348295C54.2563 -0.0627211 51.8025 0.801023 49.9063 2.45C48.01 0.801023 45.5563 -0.0627211 43.0452 0.0348295C40.5342 0.13238 38.1548 1.18388 36.3922 2.975C34.5393 4.86694 33.5016 7.40965 33.5016 10.0578C33.5016 12.706 34.5393 15.2487 36.3922 17.1406L49.9016 30.8281L49.9063 30.8234L49.911 30.8258L63.4203 17.1406C65.2732 15.2487 66.311 12.706 66.311 10.0578C66.311 7.40965 65.2732 4.86694 63.4203 2.975ZM60.0828 13.8477L49.911 24.1531L49.9063 24.1484L49.9016 24.1531L39.7297 13.8477C38.7366 12.8362 38.1802 11.4753 38.1802 10.0578C38.1802 8.6403 38.7366 7.27943 39.7297 6.26797C40.7201 5.30526 42.0469 4.76669 43.4281 4.76669C44.8094 4.76669 46.1361 5.30526 47.1266 6.26797L49.8946 9.09687L49.9063 9.08515L49.918 9.09687L52.6836 6.26797C53.6742 5.30456 55.0014 4.76556 56.3832 4.76556C57.765 4.76556 59.0923 5.30456 60.0828 6.26797C61.0759 7.27943 61.6324 8.6403 61.6324 10.0578C61.6324 11.4753 61.0759 12.8362 60.0828 13.8477Z" fill="black"/>
<path d="M33.5 63.3125H28.8125V51.5938C28.8106 49.7295 28.0693 47.9422 26.751 46.624C25.4328 45.3057 23.6455 44.5644 21.7812 44.5625H12.4062C10.542 44.5644 8.75467 45.3057 7.43646 46.624C6.11825 47.9422 5.37686 49.7295 5.375 51.5938V63.3125H0.6875V51.5938C0.691222 48.4869 1.92707 45.5083 4.12395 43.3115C6.32084 41.1146 9.29939 39.8787 12.4062 39.875H21.7812C24.8881 39.8787 27.8667 41.1146 30.0635 43.3115C32.2604 45.5083 33.4963 48.4869 33.5 51.5938V63.3125Z" fill="black"/>
<path d="M17.0938 16.4375C18.4844 16.4375 19.8438 16.8499 21.0001 17.6225C22.1564 18.3951 23.0576 19.4932 23.5898 20.778C24.122 22.0628 24.2612 23.4765 23.9899 24.8405C23.7186 26.2044 23.0489 27.4573 22.0656 28.4406C21.0823 29.4239 19.8294 30.0936 18.4655 30.3649C17.1016 30.6362 15.6878 30.497 14.403 29.9648C13.1182 29.4326 12.0201 28.5314 11.2475 27.3751C10.4749 26.2188 10.0625 24.8594 10.0625 23.4687C10.0625 21.6039 10.8033 19.8155 12.1219 18.4969C13.4405 17.1783 15.2289 16.4375 17.0938 16.4375ZM17.0938 11.75C14.776 11.75 12.5103 12.4373 10.5832 13.725C8.65603 15.0126 7.154 16.8429 6.26704 18.9842C5.38008 21.1255 5.14801 23.4817 5.60018 25.755C6.05235 28.0282 7.16845 30.1163 8.80735 31.7552C10.4462 33.3941 12.5343 34.5102 14.8075 34.9623C17.0808 35.4145 19.437 35.1824 21.5783 34.2955C23.7196 33.4085 25.5499 31.9065 26.8375 29.9793C28.1252 28.0522 28.8125 25.7865 28.8125 23.4687C28.8125 21.9298 28.5094 20.406 27.9205 18.9842C27.3315 17.5624 26.4683 16.2705 25.3802 15.1823C24.292 14.0942 23.0001 13.231 21.5783 12.642C20.1565 12.0531 18.6327 11.75 17.0938 11.75Z" fill="black"/>
</svg>
